<svg xmlns="http://www.w3.org/2000/svg" viewBox="0 0 480 480">
    <circle cx="242.518" cy="364" r="108" fill="#ffe773"></circle>
    <path fill="#fff0a6"
          d="M165.802,400.709c2.097,13.503-16.807,19.048-22.283,6.528	c-31.817-72.748,24.01-152.323,100.576-151.226c13.692,0.196,16.067,19.754,2.779,23.061	C193.075,292.459,157.008,344.081,165.802,400.709z"></path>
    <path fill="#ff6d7a"
          d="M416.308,169.3c1.17,15.93-16.26,26.48-29.93,18.22c-41.02-24.8-95.15-19.01-129.84,15.67	c-7.76,7.75-20.28,7.75-28.03,0c-34.72-34.71-88.85-40.44-129.85-15.66c-13.67,8.26-31.1-2.3-29.93-18.23	C75.208,80.51,149.418,8,242.518,8C335.638,8,409.818,80.52,416.308,169.3z"></path>
    <path fill="#ff8c95"
          d="M247.276,41.718c-63.519,13.316-118.702,61.451-134.634,131.507	c-1.115,4.901-4.349,9.018-8.793,11.368c-1.751,0.926-3.483,1.905-5.192,2.937c-13.67,8.26-31.1-2.3-29.93-18.23	C75.25,79.925,150.314,7.245,243.972,8.006C264.357,8.171,267.228,37.536,247.276,41.718z"></path>
    <path d="M282.518,348.5c4.418,0,8-3.601,8-8.019c0-15.138-10.74-27.811-25-30.807V298c0-4.418-3.582-8-8-8c-4.418,0-8,3.582-8,8v11 h-21v-11c0-4.418-3.582-8-8-8s-8,3.582-8,8v11h-10c-4.418,0-8,3.582-8,8s3.582,8,8,8h10v78h-10c-4.418,0-8,3.582-8,8s3.582,8,8,8 h10v11c0,4.418,3.582,8,8,8s8-3.582,8-8v-11h21v11c0,4.418,3.582,8,8,8c4.418,0,8-3.582,8-8v-11.674 c14.26-2.997,25-15.674,25-30.845c0-17.359-14.122-31.481-31.481-31.481h-30.519v-31h30.519c8.454,0,15.481,6.848,15.481,15.519 C274.518,344.937,278.099,348.5,282.518,348.5z M259.037,372c8.536,0,15.481,6.945,15.481,15.519 c0,8.536-6.945,15.481-15.481,15.481h-30.519v-31H259.037z"></path>
    <path d="M419.077,136.9C398.341,56.295,325.737,0,242.518,0C145.923,0,67.589,74.994,60.746,168.721 c-1.637,22.406,22.846,37.255,42.049,25.652c38.133-23.043,88.623-16.958,120.054,14.471c3.369,3.369,7.395,5.689,11.669,6.965 v32.472c-20.12,1.377-38.846,7.904-54.866,18.275l-53.893-56.458c-3.051-3.196-8.115-3.313-11.311-0.263 c-3.196,3.051-3.313,8.115-0.263,11.311l52.576,55.078c-24.631,21.288-40.244,52.742-40.244,87.776c0,63.963,52.038,116,116,116 s116-52.037,116-116c0-17.69-3.881-34.676-11.536-50.488c-1.926-3.977-6.709-5.639-10.687-3.714 c-3.977,1.925-5.64,6.71-3.715,10.687c6.594,13.62,9.938,28.261,9.938,43.516c0,55.14-44.86,100-100,100s-100-44.86-100-100 s44.86-100,100-100c21.497,0,41.979,6.716,59.231,19.421c2.375,1.749,5.568,2.069,8.297,0.72 c1.915-0.951-3.139,4.082,85.914-89.301c2.845-2.984,2.96-7.682,0.225-10.796c-1.905-2.176-3.503-2.058-5.666-3.367 c-44.607-26.963-102.737-20.034-139.64,16.852c-4.61,4.608-12.11,4.609-16.717,0.002c-37.193-37.19-95.409-43.581-139.643-16.85 c-8.158,4.929-18.506-1.361-17.816-10.793C83.004,83.595,155.838,16,242.518,16c75.916,0,142.148,51.355,161.064,124.887 c1.101,4.279,5.46,6.855,9.741,5.755C417.602,145.541,420.178,141.179,419.077,136.9z M262.19,208.844 c30.04-30.024,77.453-36.901,114.863-17.369l-71.648,75.059c-16.51-10.691-35.235-16.917-54.887-18.246v-32.479 C254.793,214.532,258.82,212.212,262.19,208.844z"></path>
</svg>