<?xml version="1.0" encoding="iso-8859-1"?>
<!-- Generator: Adobe Illustrator 19.0.0, SVG Export Plug-In . SVG Version: 6.00 Build 0)  -->
<svg version="1.1" id="Layer_1" xmlns="http://www.w3.org/2000/svg" xmlns:xlink="http://www.w3.org/1999/xlink" x="0px" y="0px"
	 viewBox="0 0 512 512" style="enable-background:new 0 0 512 512;" xml:space="preserve">
<path style="fill:#FF7452;" d="M364.491,134.085l-11.37,57.519L256,7.918L127.208,257.056l-20.382-64.544
	c-28.313,44.871-49.292,90.138-49.292,125.773c0,109.61,88.856,185.798,198.466,185.798s198.466-76.188,198.466-185.798
	C454.466,266.892,410.837,195.465,364.491,134.085z"/>
<path style="fill:#E24642;" d="M97.649,318.285c0-23.536,9.156-51.275,23.528-80.326l-14.352-45.447
	c-28.312,44.871-49.291,90.138-49.291,125.773c0,109.61,88.856,185.798,198.466,185.798c6.771,0,13.462-0.293,20.058-0.865
	C175.868,494.54,97.649,421.124,97.649,318.285z"/>
<path style="fill:#FFD652;" d="M125.097,354.177C125.097,281.882,256,134.598,256,134.598s130.903,147.284,130.903,219.579
	S328.295,485.08,256,485.08S125.097,426.473,125.097,354.177z"/>
<path style="fill:#FB9D46;" d="M287.67,453.41c-72.295,0-130.903-58.608-130.903-130.903c0-50.286,63.321-136.836,101.883-184.884
	c-1.702-1.958-2.65-3.026-2.65-3.026S125.097,281.882,125.097,354.177S183.705,485.08,256,485.08
	c44.235,0,83.341-21.944,107.038-55.536C341.727,444.576,315.731,453.41,287.67,453.41z"/>
<path d="M65.452,318.285c0-27.122,13.128-63.002,39.059-106.816l15.149,47.971c0.966,3.057,3.679,5.231,6.873,5.504
	c3.189,0.278,6.238-1.405,7.711-4.252L256.079,25.006l38.691,73.178c2.045,3.866,6.833,5.343,10.7,3.299
	c3.866-2.044,5.343-6.834,3.299-10.7L263,4.217C261.628,1.623,258.934,0,256,0c-0.012,0-0.024,0-0.037,0
	c-2.947,0.014-5.644,1.664-6.997,4.282L128.983,236.382l-14.606-46.253c-0.928-2.94-3.478-5.074-6.535-5.468
	c-3.057-0.397-6.066,1.02-7.711,3.627c-33.52,53.118-50.515,96.856-50.515,129.996c0,28.122,5.594,54.789,16.627,79.264
	c1.321,2.931,4.204,4.666,7.223,4.666c1.087,0,2.194-0.226,3.249-0.702c3.986-1.797,5.762-6.486,3.964-10.471
	C70.575,368.626,65.452,344.147,65.452,318.285z"/>
<path d="M370.809,129.314c-1.881-2.49-5.049-3.646-8.092-2.945c-3.041,0.699-5.389,3.12-5.994,6.181l-7.04,35.615l-25.285-47.823
	c-2.045-3.866-6.837-5.342-10.7-3.299c-3.866,2.044-5.343,6.834-3.299,10.7l35.722,67.562c1.567,2.964,4.832,4.621,8.149,4.133
	c3.317-0.486,5.968-3.01,6.618-6.298l7.9-39.967c50.934,69.994,77.762,126.874,77.762,165.111
	c0,101.409-81.918,177.88-190.548,177.88c-60.844,0-116.01-24.356-151.354-66.824c-2.799-3.362-7.79-3.817-11.151-1.021
	s-3.818,7.789-1.021,11.151C130.837,485.564,190.439,512,256,512c55.845,0,107.579-19.129,145.671-53.862
	c39.152-35.699,60.713-85.366,60.713-139.853C462.384,273.367,431.574,209.788,370.809,129.314z"/>
<path d="M256,126.68c-2.262,0-4.416,0.967-5.918,2.658c-5.426,6.105-132.903,150.389-132.903,224.839
	c0,76.546,62.275,138.821,138.821,138.821s138.821-62.275,138.821-138.821c0-74.45-127.476-218.734-132.903-224.839
	C260.416,127.647,258.262,126.68,256,126.68z M378.986,354.177c0,67.814-55.171,122.986-122.986,122.986
	s-122.986-55.171-122.986-122.986c0-27.882,22.096-73.593,63.899-132.19c23.977-33.61,48.215-62.62,59.087-75.309
	c10.872,12.689,35.108,41.699,59.087,75.309C356.889,280.584,378.986,326.295,378.986,354.177z"/>
<path d="M213.773,312.478c-4.373,0-7.918,3.545-7.918,7.918v34.309h-26.392v-34.309c0-4.373-3.545-7.918-7.918-7.918
	c-4.373,0-7.918,3.545-7.918,7.918v84.454c0,4.373,3.545,7.918,7.918,7.918c4.373,0,7.918-3.545,7.918-7.918V370.54h26.392v34.309
	c0,4.373,3.545,7.918,7.918,7.918c4.373,0,7.918-3.545,7.918-7.918v-84.454C221.691,316.023,218.146,312.478,213.773,312.478z"/>
<path d="M231.192,320.396v84.454c0,4.373,3.545,7.918,7.918,7.918h35.893c4.373,0,7.918-3.545,7.918-7.918v-84.454
	c0-4.373-3.545-7.918-7.918-7.918h-35.893C234.737,312.478,231.192,316.023,231.192,320.396z M247.027,328.313h20.058v68.619
	h-20.058V328.313z"/>
<path d="M298.227,328.313h13.196v76.536c0,4.373,3.545,7.918,7.918,7.918s7.918-3.545,7.918-7.918v-76.536h13.196
	c4.373,0,7.918-3.545,7.918-7.918c0-4.373-3.545-7.918-7.918-7.918h-42.227c-4.373,0-7.918,3.545-7.918,7.918
	C290.309,324.768,293.854,328.313,298.227,328.313z"/>
<g>
</g>
<g>
</g>
<g>
</g>
<g>
</g>
<g>
</g>
<g>
</g>
<g>
</g>
<g>
</g>
<g>
</g>
<g>
</g>
<g>
</g>
<g>
</g>
<g>
</g>
<g>
</g>
<g>
</g>
</svg>
