<svg xmlns="http://www.w3.org/2000/svg" viewBox="0 0 64 64">
    <g>
        <path fill="#393d48"
              d="M47,59H17a3.85,3.85,0,0,1,2.91-3.73l4.5-.94A1.993,1.993,0,0,0,26,52.37V47H38v5.37a1.993,1.993,0,0,0,1.59,1.96l4.5.94A3.85,3.85,0,0,1,47,59Z"></path>
        <path fill="#fbfbfb" d="M63,9V41H1V9A4,4,0,0,1,5,5H59A4,4,0,0,1,63,9Z"></path>
        <path fill="#8394b2" d="M63,41v2a4,4,0,0,1-4,4H5a4,4,0,0,1-4-4V41Z"></path>
        <path fill="#5c6979" d="M59,45H5a4,4,0,0,1-4-4v2a4,4,0,0,0,4,4H59a4,4,0,0,0,4-4V41A4,4,0,0,1,59,45Z"></path>
        <path fill="#edf4fa" d="M7,14V5H5A4,4,0,0,0,1,9V41H63V36H29A22,22,0,0,1,7,14Z"></path>
        <path fill="#a8b7d4"
              d="M59,5H5A4,4,0,0,0,1,9V41H2V9A3,3,0,0,1,5,6H59a3,3,0,0,1,3,3V41h1V9A4,4,0,0,0,59,5Z"></path>
        <path fill="#8394b2" d="M5,5A4,4,0,0,0,1,9V41H2V9A3,3,0,0,1,5,6H7V5Z"></path>
        <rect width="1" height="5" x="62" y="36" fill="#8394b2"></rect>
        <path fill="#2b2b37"
              d="M26.851,57a1,1,0,0,1-.625-1.781l1.579-.694A2,2,0,0,0,29,52.694V51a2,2,0,0,1,2-2h7V47H26v5.37a1.993,1.993,0,0,1-1.59,1.96l-4.5.94A3.85,3.85,0,0,0,17,59H47a3.82,3.82,0,0,0-.575-2Z"></path>
        <path fill="#a81e29"
              d="M17,23H16a.978.978,0,0,1-.713-.306A.965.965,0,0,1,15,22a1,1,0,0,1,1-1h2a1,1,0,0,0,0-2H16a3,3,0,0,0-3,3,3.015,3.015,0,0,0,3,3h1a1,1,0,0,1,1,1,.978.978,0,0,1-.306.712A.957.957,0,0,1,17,27H15a1,1,0,0,0,0,2h2a3.017,3.017,0,0,0,3-3A3,3,0,0,0,17,23Z"></path>
        <path fill="#a81e29"
              d="M25,19a3.267,3.267,0,0,0-3.242,2.856l-.75,6.02a1,1,0,1,0,1.984.248L23.132,27h3.736l.14,1.124A1,1,0,0,0,28,29a.884.884,0,0,0,.125-.008,1,1,0,0,0,.868-1.116l-.75-6.019A3.267,3.267,0,0,0,25,19Zm-1.619,6,.361-2.9a1.269,1.269,0,0,1,2.516,0l.361,2.9Z"></path>
        <path fill="#a81e29" d="M36,27H33V20a1,1,0,0,0-2,0v8a1,1,0,0,0,1,1h4a1,1,0,0,0,0-2Z"></path>
        <path fill="#a81e29"
              d="M43,21a1,1,0,0,0,0-2H39a1,1,0,0,0-1,1v8a1,1,0,0,0,1,1h4a1,1,0,0,0,0-2H40V25h2a1,1,0,0,0,0-2H40V21Z"></path>
        <path fill="#ffad39"
              d="M50.971,19.071a1,1,0,0,0-1.3.557l-3.2,8a1,1,0,0,0,.557,1.3A.987.987,0,0,0,47.4,29a1,1,0,0,0,.929-.629l3.2-8A1,1,0,0,0,50.971,19.071Z"></path>
        <circle cx="47" cy="21" r="1" fill="#ffad39"></circle>
        <circle cx="51" cy="27" r="1" fill="#ffad39"></circle>
        <path fill="#d6e0eb"
              d="M18,26a1,1,0,0,0-1-1H16a3.015,3.015,0,0,1-3-3,2.976,2.976,0,0,1,.446-1.554A2.993,2.993,0,0,0,12,23a3.015,3.015,0,0,0,3,3h1a1,1,0,0,1,1,1,.957.957,0,0,0,.694-.288A.978.978,0,0,0,18,26Z"></path>
        <path fill="#d6e0eb" d="M15,22h2a1,1,0,0,0,1-1H16A1,1,0,0,0,15,22Z"></path>
        <path fill="#d6e0eb"
              d="M15,29a1,1,0,0,1-1-1,1,1,0,0,0,0,2h2a2.986,2.986,0,0,0,2.552-1.442A2.963,2.963,0,0,1,17,29Z"></path>
        <path fill="#d6e0eb"
              d="M27.008,28.124,26.868,27H23.132l-.124,1h2.86l.14,1.124A1,1,0,0,0,27,30a.884.884,0,0,0,.125-.008.989.989,0,0,0,.859-1A1,1,0,0,1,27.008,28.124Z"></path>
        <path fill="#d6e0eb"
              d="M26.258,22.1a1.263,1.263,0,0,0-2.5-.06A1.2,1.2,0,0,1,24,22a1.264,1.264,0,0,1,1.258,1.1l.236,1.9h1.125Z"></path>
        <path fill="#d6e0eb"
              d="M21.008,27.876l.75-6.02a3.2,3.2,0,0,1,.5-1.35,3.244,3.244,0,0,0-1.5,2.35l-.75,6.02a1,1,0,1,0,1.984.248l.018-.142a.864.864,0,0,1-.134.01A1,1,0,0,1,21.008,27.876Z"></path>
        <path fill="#d6e0eb" d="M31,28V20a1,1,0,0,0-1,1v8a1,1,0,0,0,1,1h4a1,1,0,0,0,1-1H32A1,1,0,0,1,31,28Z"></path>
        <path fill="#d6e0eb" d="M38,28V20a1,1,0,0,0-1,1v8a1,1,0,0,0,1,1h4a1,1,0,0,0,1-1H39A1,1,0,0,1,38,28Z"></path>
        <path fill="#d6e0eb" d="M40,22h2a1,1,0,0,0,1-1H40Z"></path>
        <path fill="#d6e0eb" d="M40,26h1a1,1,0,0,0,1-1H40Z"></path>
        <path fill="#d6e0eb"
              d="M47.028,28.929a1,1,0,0,1-.557-1.3l3.046-7.615a1,1,0,0,0-.846.614l-3.2,8a1,1,0,0,0,.557,1.3A.987.987,0,0,0,46.4,30a1,1,0,0,0,.929-.629l.153-.383c-.027,0-.054.012-.082.012A.987.987,0,0,1,47.028,28.929Z"></path>
        <path fill="#d6e0eb" d="M47,22a1,1,0,0,1-1-1,1,1,0,1,0,1,1Z"></path>
        <path fill="#d6e0eb" d="M50,27a1,1,0,1,0,1,1A1,1,0,0,1,50,27Z"></path>
    </g>
</svg>