<?xml version="1.0"?>
<svg xmlns="http://www.w3.org/2000/svg" xmlns:xlink="http://www.w3.org/1999/xlink" version="1.1" viewBox="0 0 172 172" width="48px" height="48px"><g fill="none" fill-rule="nonzero" stroke="none" stroke-width="1" stroke-linecap="butt" stroke-linejoin="miter" stroke-miterlimit="10" stroke-dasharray="" stroke-dashoffset="0" font-family="none" font-weight="none" font-size="none" text-anchor="none" style="mix-blend-mode: normal"><path d="M0,172v-172h172v172z" fill="none"/><g id="Layer_1"><circle cx="24" cy="24" transform="scale(3.58333,3.58333)" r="20" fill="#29b6f6"/><path d="M121.65417,53.75l-13.42317,68.53483c0,0 -0.57692,3.13183 -4.46125,3.13183c-2.064,0 -3.12825,-0.98183 -3.12825,-0.98183l-29.07517,-24.12658l-14.22583,-7.17025l-18.25708,-4.85542c0,0 -3.25008,-0.93883 -3.25008,-3.62633c0,-2.23958 3.34325,-3.30742 3.34325,-3.30742l76.38233,-30.34367c-0.00358,-0.00358 2.33275,-0.84208 4.03483,-0.8385c1.04633,0 2.23958,0.44792 2.23958,1.79167c0,0.89583 -0.17917,1.79167 -0.17917,1.79167z" fill="#ffffff"/><path d="M82.41667,109.30958l-12.2765,12.09017c0,0 -0.53392,0.41208 -1.247,0.43c-0.24725,0.00717 -0.51242,-0.03225 -0.78475,-0.15408l3.45433,-21.37458z" fill="#b0bec5"/><path d="M107.13092,65.20233c-0.60558,-0.78833 -1.72358,-0.93167 -2.51192,-0.33325l-47.28567,28.29758c0,0 7.5465,21.113 8.69675,24.768c1.15383,3.65858 2.07833,3.74458 2.07833,3.74458l3.45433,-21.37458l35.23133,-32.594c0.78833,-0.59842 0.93525,-1.72 0.33683,-2.50833z" fill="#cfd8dc"/></g></g></svg>
