<svg xmlns="http://www.w3.org/2000/svg" viewBox="0 0 512 512"><g data-name="6.Email"><rect width="323.945" height="220.73" x="94.028" y="145.635" fill="#8bd5ef" rx="58.661" ry="58.661"></rect><path fill="#1d71a0" d="M256.0044,507.004a251.1854,251.1854,0,0,1-241.01-321.3193,6,6,0,1,1,11.5205,3.3584,239.1224,239.1224,0,0,0-9.51,66.9609c0,131.7852,107.2148,239,239,239s239-107.2148,239-239-107.2149-239-239-239a238.7951,238.7951,0,0,0-210.86,126.3907,6,6,0,0,1-10.58-5.6612,251.0246,251.0246,0,1,1,221.44,369.2705Z"></path><path fill="#1d71a0" d="M27.1032,174.4655a6.0034,6.0034,0,0,1-5.6023-8.1465c1.1841-3.0928,2.4468-6.1978,3.7535-9.23a6,6,0,1,1,11.02,4.749c-1.2415,2.8809-2.4414,5.832-3.5664,8.77A6.0024,6.0024,0,0,1,27.1032,174.4655Z"></path><path fill="#1d71a0" d="M359.3115,372.3649H152.6884a64.7343,64.7343,0,0,1-64.6608-64.6611V204.296a64.7342,64.7342,0,0,1,64.6608-64.6611H359.3115a64.7343,64.7343,0,0,1,64.6609,64.6611V307.7038A64.7344,64.7344,0,0,1,359.3115,372.3649Zm-206.6231-220.73a52.72,52.72,0,0,0-52.6608,52.6611V307.7038a52.7205,52.7205,0,0,0,52.6608,52.6611H359.3115a52.7206,52.7206,0,0,0,52.6609-52.6611V204.296a52.7205,52.7205,0,0,0-52.6609-52.6611Z"></path><path fill="#1d71a0" d="M255.9992,262.4079a87.507,87.507,0,0,1-56.2966-20.4834l-90.79-76a6,6,0,0,1-.2353-8.9937,64.4072,64.4072,0,0,1,44.007-17.2969h206.63a64.4065,64.4065,0,0,1,44.0066,17.2969,6,6,0,0,1-.2353,8.9937l-90.79,76A87.526,87.526,0,0,1,255.9992,262.4079ZM122.1721,161.3747l85.2334,71.3486a75.6166,75.6166,0,0,0,97.1872,0l85.2339-71.3486a52.4347,52.4347,0,0,0-30.5122-9.7408h-206.63A52.4344,52.4344,0,0,0,122.1721,161.3747Z"></path></g></svg>