<svg xmlns="http://www.w3.org/2000/svg" viewBox="0 0 100 100">
    <path fill="#f59173" d="M35,71.5c0,13-19.5,13-19.5,13s0-19.5,13-19.5"></path>
    <path fill="#eddc67" d="M31.5,67.5c-10,0-10,11-10,11s11,0,11-10"></path>
    <path fill="#e3e2e3"
          d="M43,70c0,0,28-22,33-27c8-8,8-17,8-20c0-5-1-6-1-6s-1-1-6-1c-3,0-12,0-20,8c-5,5-27,33-27,33L43,70z"></path>
    <polygon fill="#b2b1c2" points="30,57 34.854,52.146 48.354,65.646 43,69.5"></polygon>
    <path fill="#f05b6c"
          d="M81.496,35.203C83.992,29.832,84,25.035,84,23c0-5-1-6-1-6s-1-1-6-1	c-2.035,0-6.832,0.008-12.203,2.504L81.496,35.203z"></path>
    <polyline fill="#f05b6c" points="30,57 16,53 19,49 40.5,44"></polyline>
    <polyline fill="#f05b6c" points="43,70 47,84 51,81 56,59.5"></polyline>
    <polyline fill="#9898ad" points="41,68 35,71 29,65 32,59"></polyline>
    <circle cx="61.5" cy="38.5" r="8" fill="#b2b1c2"></circle>
    <circle cx="61.5" cy="38.5" r="5.5" fill="#c4e7ed"></circle>
    <path fill="#1f212b"
          d="M61.5,47c-4.687,0-8.5-3.813-8.5-8.5s3.813-8.5,8.5-8.5s8.5,3.813,8.5,8.5S66.187,47,61.5,47z M61.5,31c-4.136,0-7.5,3.364-7.5,7.5s3.364,7.5,7.5,7.5s7.5-3.364,7.5-7.5S65.636,31,61.5,31z"></path>
    <path fill="#1f212b"
          d="M61.5,44c-3.032,0-5.5-2.467-5.5-5.5c0-2.605,1.851-4.872,4.4-5.39	c0.264-0.052,0.534,0.12,0.59,0.391c0.055,0.271-0.12,0.535-0.391,0.59C58.514,34.514,57,36.369,57,38.5c0,2.481,2.019,4.5,4.5,4.5	c1.785,0,3.402-1.06,4.12-2.701c0.111-0.252,0.407-0.368,0.658-0.257c0.253,0.111,0.368,0.406,0.258,0.659	C65.659,42.705,63.682,44,61.5,44z"></path>
    <path fill="#1f212b"
          d="M64.473,35c-0.104,0-0.209-0.032-0.299-0.099c-0.552-0.411-1.148-0.684-1.773-0.811	c-0.271-0.055-0.445-0.319-0.391-0.589c0.056-0.271,0.326-0.446,0.59-0.39c0.771,0.157,1.501,0.489,2.172,0.988	c0.222,0.165,0.268,0.479,0.103,0.7C64.775,34.93,64.625,35,64.473,35z"></path>
    <path fill="#1f212b"
          d="M66.398,38c-0.232,0-0.44-0.163-0.489-0.4c-0.06-0.294-0.157-0.597-0.289-0.9	c-0.11-0.253,0.005-0.548,0.259-0.658c0.25-0.109,0.547,0.005,0.657,0.259c0.16,0.367,0.279,0.737,0.354,1.1	c0.055,0.271-0.119,0.535-0.39,0.59C66.466,37.997,66.432,38,66.398,38z"></path>
    <path fill="#1f212b"
          d="M29.726,57.961l-14-4c-0.316-0.09-0.568-0.331-0.674-0.643c-0.104-0.312-0.049-0.656,0.148-0.919l3-4	c0.141-0.188,0.344-0.321,0.573-0.374l21.5-5l0.453,1.948l-21.146,4.917l-1.909,2.546l12.603,3.601L29.726,57.961z"></path>
    <path fill="#1f212b"
          d="M43,71c-0.257,0-0.513-0.099-0.707-0.293l-13-13c-0.358-0.358-0.392-0.927-0.079-1.325	c0.899-1.146,22.094-28.104,27.079-33.089C64.586,15,73.93,15,77,15c5.023,0,6.404,0.99,6.707,1.293C84.011,16.596,85,17.976,85,23	c0,3.07,0,12.414-8.293,20.707c-4.985,4.985-31.944,26.18-33.089,27.079C43.436,70.93,43.218,71,43,71z M31.335,56.921	l11.744,11.744c4.356-3.432,27.751-21.909,32.214-26.372C83,34.586,83,25.866,83,23c0-3.664-0.558-4.978-0.719-5.281	C81.978,17.558,80.664,17,77,17c-2.865,0-11.586,0-19.293,7.707C53.244,29.17,34.77,52.562,31.335,56.921z"></path>
    <rect width="1" height="22.627" x="73" y="15.186" fill="#1f212b" transform="rotate(-45.001 73.5 26.501)"></rect>
    <path fill="#1f212b"
          d="M47,85c-0.107,0-0.215-0.017-0.318-0.052c-0.313-0.105-0.553-0.356-0.644-0.673l-4-14l1.924-0.55	l3.601,12.603l2.546-1.91l4.918-21.145l1.947,0.453l-5,21.5c-0.053,0.229-0.186,0.432-0.374,0.573l-4,3	C47.425,84.932,47.214,85,47,85z"></path>
    <path fill="#1f212b"
          d="M35,72c-0.259,0-0.515-0.101-0.707-0.293l-6-6c-0.305-0.304-0.38-0.769-0.188-1.154l3-6l1.789,0.895	l-2.678,5.355l4.98,4.98l5.355-2.678l0.895,1.789l-6,3C35.305,71.965,35.152,72,35,72z"></path>
    <path fill="#1f212b"
          d="M15.5,85c-0.276,0-0.5-0.224-0.5-0.5c0-0.2,0.154-20,13.5-20v1	c-11.189,0-12.364,15.447-12.486,18.486C19.054,83.864,34.5,82.69,34.5,71.5h1C35.5,84.846,15.7,85,15.5,85z"></path>
    <path fill="#1f212b"
          d="M21.5,79c-0.276,0-0.5-0.224-0.5-0.5C21,78.385,21.12,67,31.5,67v1c-8.286,0-9.346,7.839-9.48,9.98	c2.14-0.138,9.98-1.208,9.98-9.48h1C33,78.88,21.615,79,21.5,79z"></path>
    <path fill="#1f212b"
          d="M48,66.5c-0.128,0-0.256-0.049-0.354-0.146l-2.5-2.5c-0.195-0.195-0.195-0.512,0-0.707	s0.512-0.195,0.707,0l2.5,2.5c0.195,0.195,0.195,0.512,0,0.707C48.256,66.451,48.128,66.5,48,66.5z"></path>
    <path fill="#1f212b"
          d="M43.5,62c-0.128,0-0.256-0.049-0.354-0.146l-9-9c-0.195-0.195-0.195-0.512,0-0.707	s0.512-0.195,0.707,0l9,9c0.195,0.195,0.195,0.512,0,0.707C43.756,61.951,43.628,62,43.5,62z"></path>
</svg>